<?xml version="1.0" encoding="iso-8859-1"?>
<!-- Generator: Adobe Illustrator 19.1.0, SVG Export Plug-In . SVG Version: 6.00 Build 0)  -->
<svg version="1.1" id="Capa_1" xmlns="http://www.w3.org/2000/svg" xmlns:xlink="http://www.w3.org/1999/xlink" x="0px" y="0px"
	 viewBox="0 0 65.17 65.17" style="enable-background:new 0 0 65.17 65.17;" xml:space="preserve">
<g>
	<path d="M60.92,28.417h-1.249c0.011-6.216,0.096-12.439-0.004-18.653c-0.076-4.732-3.695-8.721-8.643-8.309
		c-6.155,0.512-8.979,7.395-5.884,12.407c0.844,1.366,3.007,0.112,2.159-1.262c-1.821-2.949-1.05-6.819,2.297-8.232
		c2.905-1.227,6.35,0.318,7.314,3.347c0.607,1.907,0.257,4.381,0.257,6.341c0,4.787,0,9.574,0,14.361H4.25
		c-2.343,0-4.25,1.906-4.25,4.25v1.798c0,1.807,0.487,4.551,1.108,6.246l5.876,16.038c0.513,1.402,1.758,2.58,3.188,3.189
		c0,0.866,0,1.733,0,2.599c0,1.609,2.5,1.611,2.5,0c0-0.717,0-1.434,0-2.151H52.98c0.134,0,0.268-0.024,0.402-0.036
		c0,0.729,0,1.458,0,2.187c0,1.609,2.5,1.611,2.5,0c0-1.007,0-2.013,0-3.02c0-0.015-0.004-0.027-0.004-0.041
		c1.043-0.662,1.904-1.625,2.308-2.728l5.876-16.038c0.622-1.696,1.108-4.44,1.108-6.246v-1.798
		C65.17,30.323,63.264,28.417,60.92,28.417z M2.5,32.667c0-0.965,0.785-1.75,1.75-1.75h56.67c0.965,0,1.75,0.785,1.75,1.75v1.798
		c0,0.388-0.03,0.842-0.082,1.324H2.582C2.53,35.307,2.5,34.853,2.5,34.465V32.667z M55.838,55.89
		c-0.39,1.063-1.725,1.997-2.858,1.997H12.189c-1.133,0-2.468-0.934-2.858-1.997L3.456,39.851c-0.161-0.438-0.311-0.982-0.445-1.562
		h59.15c-0.134,0.58-0.285,1.124-0.445,1.562L55.838,55.89z"/>
	<path d="M21.361,52.405c-1.828,0-4.311,0.439-6.005-0.356c-2.224-1.044-2.733-4.029-3.511-6.152
		c-0.329-0.899-1.78-0.511-1.446,0.399c0.836,2.281,1.389,5.223,3.514,6.672c2.096,1.43,5.041,0.937,7.448,0.937
		C22.327,53.905,22.328,52.405,21.361,52.405z"/>
</g>
<g>
</g>
<g>
</g>
<g>
</g>
<g>
</g>
<g>
</g>
<g>
</g>
<g>
</g>
<g>
</g>
<g>
</g>
<g>
</g>
<g>
</g>
<g>
</g>
<g>
</g>
<g>
</g>
<g>
</g>
</svg>
