<?xml version="1.0" encoding="UTF-8"?>
<svg width="1284px" height="338px" viewBox="0 0 1284 338" version="1.1" xmlns="http://www.w3.org/2000/svg" xmlns:xlink="http://www.w3.org/1999/xlink">
    <!-- Generator: Sketch 50.2 (55047) - http://www.bohemiancoding.com/sketch -->
    <title>Artboard</title>
    <desc>Created with Sketch.</desc>
    <defs></defs>
    <g id="Artboard" stroke="none" stroke-width="1" fill="none" fill-rule="evenodd">
        <g id="Group-2" transform="translate(6.000000, 6.000000)" stroke="#313951">
            <g id="Group">
                <g id="if_Home_1214974" stroke-linecap="round" stroke-linejoin="round" stroke-width="12">
                    <path d="M52.9,325 C69.7,325 217.1,325 234,325 C240.2,325 242.8,322.8 243.7,316.5 C244,314.4 244.1,312.2 244.1,310.1 C244.1,244.6 244.1,179.2 244.2,113.7 C244.2,111.2 243.4,109.5 241.5,107.9 C228,96 214.7,84 201.3,72 C196.8,67.9 194.5,66 190,61.9" id="Shape"></path>
                    <path d="M174.4,49 C173.7,48.4 175.1,49.7 174.4,49" id="Shape"></path>
                    <path d="M159.9,34.9 C146.3,22.7 135.4,13.2 121.7,0.9 C121,1.5 120.5,1.8 120,2.2 C80.7,37.3 41.4,72.4 2.2,107.5 C1,108.6 0.1,110.7 0.1,112.3 C0.1,134.1 0,156 0,177.8" id="Shape"></path>
                    <path d="M0.1,208.9 C0.1,245 0.1,281 0.1,317.1 C0.1,323.4 2,325.2 8.3,325.2 C25.8,325.2 43.2,325.2 60.7,325.2" id="Shape"></path>
                </g>
                <polygon id="Star" stroke-width="10" points="123 225 84.2061733 245.395122 91.615135 202.197561 60.2302699 171.604878 103.603087 165.302439 123 126 142.396913 165.302439 185.76973 171.604878 154.384865 202.197561 161.793827 245.395122"></polygon>
            </g>
        </g>
        <path d="M329.460938,254 L329.460938,85.6015625 L353.132812,85.6015625 L353.132812,147.359375 L353.953125,147.359375 C358.289062,139.273438 369.539062,128.492188 389.695312,128.492188 C415.007812,128.492188 433.523438,144.546875 433.523438,174.664062 L433.523438,254 L409.851562,254 L409.851562,179.117188 C409.851562,158.960938 398.132812,149.351562 381.609375,149.351562 C362.039062,149.351562 353.132812,163.179688 353.132812,179.703125 L353.132812,254 L329.460938,254 Z M510.203125,128.375 C545.242188,128.375 564.226562,153.335938 564.226562,186.734375 L564.226562,197.164062 C564.226562,231.5 545.359375,256.109375 510.203125,256.109375 C474.929688,256.109375 455.828125,231.5 455.828125,197.164062 L455.828125,186.851562 C455.828125,153.453125 474.929688,128.375 510.203125,128.375 Z M510.085938,147.828125 C490.046875,147.828125 479.617188,163.765625 479.617188,187.320312 L479.617188,196.8125 C479.617188,220.132812 490.046875,236.421875 510.085938,236.421875 C530.242188,236.421875 540.4375,220.25 540.4375,196.8125 L540.4375,187.320312 C540.4375,163.648438 530.125,147.828125 510.085938,147.828125 Z M588.523438,254 L588.523438,130.484375 L611.84375,130.484375 L611.84375,146.421875 L613.015625,146.421875 C616.882812,137.867188 627.664062,128.492188 644.65625,128.492188 C663.875,128.492188 675.359375,136.460938 679.929688,148.765625 L680.984375,148.765625 C685.4375,138.21875 698.445312,128.492188 718.71875,128.492188 C744.734375,128.492188 759.851562,144.664062 759.851562,169.859375 L759.851562,254 L736.296875,254 L736.296875,175.367188 C736.296875,159.664062 727.507812,149.117188 711.335938,149.117188 C695.046875,149.117188 685.789062,160.367188 685.789062,177.007812 L685.789062,254 L662.585938,254 L662.585938,177.007812 C662.585938,158.492188 652.859375,149.117188 637.390625,149.117188 C623.328125,149.117188 612.078125,158.609375 612.078125,176.773438 L612.078125,254 L588.523438,254 Z M836.648438,256.109375 C803.953125,256.109375 783.445312,233.84375 783.445312,197.867188 L783.445312,184.859375 C783.445312,150.992188 803.132812,128.375 835.710938,128.375 C868.40625,128.375 887.742188,151.578125 887.742188,186.03125 L887.742188,197.75 L807,197.75 L807,200.328125 C807,222.242188 818.484375,237.007812 837.117188,237.007812 C850.710938,237.007812 859.851562,230.210938 863.367188,219.195312 L886.21875,219.195312 C882.117188,239.351562 865.945312,256.109375 836.648438,256.109375 Z M807,180.40625 L864.421875,180.40625 L864.421875,180.054688 C864.421875,161.65625 853.054688,147.242188 835.828125,147.242188 C818.25,147.242188 807,161.773438 807,180.054688 L807,180.40625 Z M913.5625,254 L913.5625,131.773438 L928.210938,131.773438 L928.210938,149.703125 L928.679688,149.703125 C932.429688,140.445312 941.453125,129.898438 960.671875,129.898438 C963.835938,129.898438 966.414062,130.25 968.523438,130.484375 L968.523438,144.3125 C966.882812,143.960938 962.78125,143.609375 958.914062,143.609375 C936.765625,143.609375 928.210938,158.960938 928.210938,179.46875 L928.210938,254 L913.5625,254 Z M1056.33594,236.890625 C1051.29688,246.03125 1039.69531,255.992188 1019.42188,255.992188 C995.632812,255.992188 979.460938,241.695312 979.460938,219.195312 C979.460938,198.335938 993.992188,184.742188 1021.76562,184.625 L1056.33594,184.625 L1056.33594,170.09375 C1056.33594,151.929688 1045.4375,142.554688 1027.27344,142.554688 C1009.57812,142.554688 1000.20312,151.226562 998.445312,164.820312 L984.382812,164.820312 C986.023438,144.195312 1000.20312,129.78125 1027.97656,129.78125 C1053.28906,129.78125 1071.10156,143.492188 1071.10156,168.21875 L1071.10156,254 L1056.80469,254 L1056.80469,236.890625 L1056.33594,236.890625 Z M1022.58594,243.21875 C1041.45312,243.21875 1056.33594,231.03125 1056.33594,213.21875 L1056.33594,196.929688 L1022.23438,196.929688 C1003.01562,196.929688 994.8125,206.070312 994.8125,218.84375 C994.8125,234.78125 1007.46875,243.21875 1022.58594,243.21875 Z M1109.69531,131.773438 L1109.69531,101.421875 L1124.46094,101.421875 L1124.46094,131.773438 L1151.17969,131.773438 L1151.17969,144.429688 L1124.46094,144.429688 L1124.46094,223.648438 C1124.46094,238.648438 1129.73438,242.515625 1145.20312,242.515625 C1147.89844,242.515625 1150.35938,242.398438 1152.35156,242.046875 L1152.35156,254.234375 C1150.47656,254.703125 1146.375,255.171875 1141.80469,255.171875 C1115.55469,255.171875 1109.69531,245.210938 1109.69531,222.359375 L1109.69531,144.429688 L1092.11719,144.429688 L1092.11719,131.773438 L1109.69531,131.773438 Z M1219.53906,255.992188 C1188.48438,255.992188 1169.73438,234.195312 1169.73438,199.273438 L1169.73438,185.679688 C1169.73438,151.8125 1187.78125,129.78125 1218.60156,129.78125 C1249.07031,129.78125 1267.46875,151.578125 1267.46875,186.734375 L1267.46875,195.992188 L1184.5,195.992188 L1184.5,199.625 C1184.5,226.34375 1197.85938,243.21875 1220.00781,243.21875 C1237.58594,243.21875 1247.66406,233.609375 1250.82812,222.125 L1265.71094,222.125 C1261.96094,240.289062 1246.72656,255.992188 1219.53906,255.992188 Z M1184.5,183.21875 L1252.70312,183.21875 L1252.70312,182.867188 C1252.70312,159.195312 1239.10938,142.554688 1218.60156,142.554688 C1197.97656,142.554688 1184.5,159.195312 1184.5,182.867188 L1184.5,183.21875 Z" id="homerate" fill="#313951"></path>
    </g>
</svg>