<?xml version="1.0" encoding="UTF-8"?>
<svg width="1284px" height="338px" viewBox="0 0 1284 338" version="1.1" xmlns="http://www.w3.org/2000/svg" xmlns:xlink="http://www.w3.org/1999/xlink">
    <!-- Generator: Sketch 50.2 (55047) - http://www.bohemiancoding.com/sketch -->
    <title>Artboard</title>
    <desc>Created with Sketch.</desc>
    <defs></defs>
    <g id="Artboard" stroke="none" stroke-width="1" fill="none" fill-rule="evenodd">
        <g id="Group-2" transform="translate(6.000000, 6.000000)">
            <g id="Group" stroke="#313951">
                <g id="if_Home_1214974" stroke-linecap="round" stroke-linejoin="round" stroke-width="12">
                    <path d="M52.9,325 C69.7,325 217.1,325 234,325 C240.2,325 242.8,322.8 243.7,316.5 C244,314.4 244.1,312.2 244.1,310.1 C244.1,244.6 244.1,179.2 244.2,113.7 C244.2,111.2 243.4,109.5 241.5,107.9 C228,96 214.7,84 201.3,72 C196.8,67.9 194.5,66 190,61.9" id="Shape"></path>
                    <path d="M174.4,49 C173.7,48.4 175.1,49.7 174.4,49" id="Shape"></path>
                    <path d="M159.9,34.9 C146.3,22.7 135.4,13.2 121.7,0.9 C121,1.5 120.5,1.8 120,2.2 C80.7,37.3 41.4,72.4 2.2,107.5 C1,108.6 0.1,110.7 0.1,112.3 C0.1,134.1 0,156 0,177.8" id="Shape"></path>
                    <path d="M0.1,208.9 C0.1,245 0.1,281 0.1,317.1 C0.1,323.4 2,325.2 8.3,325.2 C25.8,325.2 43.2,325.2 60.7,325.2" id="Shape"></path>
                </g>
                <polygon id="Star" stroke-width="10" points="123 225 84.2061733 245.395122 91.615135 202.197561 60.2302699 171.604878 103.603087 165.302439 123 126 142.396913 165.302439 185.76973 171.604878 154.384865 202.197561 161.793827 245.395122"></polygon>
            </g>
            <path d="M377.56,117.84 C407.32,117.84 429.88,141.6 429.88,173.04 L429.88,239.76 C429.88,244.08 426.52,247.44 422.2,247.44 C418.12,247.44 414.52,244.08 414.52,239.76 L414.52,173.04 C414.52,150.24 398.68,132.96 377.56,132.96 C356.44,132.96 340.36,150.24 340.36,173.04 L340.36,239.76 C340.36,244.08 337,247.44 332.68,247.44 C328.6,247.44 325,244.08 325,239.76 L325,85.68 C325,81.36 328.6,78 332.68,78 C337,78 340.36,81.36 340.36,85.68 L340.36,133.2 C349.72,123.6 362.68,117.84 377.56,117.84 Z M509.08,247.44 C473.32,247.44 444.28,218.4 444.28,182.64 C444.28,146.88 473.32,117.84 509.08,117.84 C544.84,117.84 573.88,146.88 573.88,182.64 C573.88,218.4 544.84,247.44 509.08,247.44 Z M509.08,132.96 C481.72,132.96 459.64,155.28 459.64,182.64 C459.64,210 481.72,232.08 509.08,232.08 C536.44,232.08 558.52,210 558.52,182.64 C558.52,155.28 536.44,132.96 509.08,132.96 Z M723.16,117.84 C750.76,117.84 770.92,141.12 770.92,173.04 L770.92,239.76 C770.92,244.08 767.56,247.44 763.24,247.44 C758.92,247.44 755.56,244.08 755.56,239.76 L755.56,173.04 C755.56,149.52 742.36,132.96 723.16,132.96 C702.28,132.96 687.16,150 687.16,173.04 L687.16,239.76 C687.16,244.08 683.8,247.44 679.48,247.44 C675.4,247.44 672.04,244.08 672.04,239.76 L672.04,173.04 C672.04,149.52 658.6,132.96 639.64,132.96 C618.76,132.96 603.64,150 603.64,173.04 L603.64,239.76 C603.64,244.08 600.04,247.44 595.96,247.44 C591.64,247.44 588.28,244.08 588.28,239.76 L588.28,125.28 C588.28,121.2 591.64,117.84 595.96,117.84 C600.04,117.84 603.64,121.2 603.64,125.28 L603.64,132.72 C613,123.12 625.48,117.84 639.64,117.84 C657.16,117.84 671.8,127.2 679.96,142.32 C681.64,139.44 683.56,136.8 685.72,134.4 C695.08,123.6 708.52,117.84 723.16,117.84 Z M847.72,247.44 C812.68,247.44 786.52,219.6 786.52,182.64 C786.52,165.12 792.28,149.04 802.84,137.04 C813.88,124.56 829.48,117.84 846.52,117.84 C880.84,117.84 905.56,144.96 905.56,182.64 C905.56,186.72 902.2,190.32 897.88,190.32 L802.12,190.32 C805.48,214.56 823.96,232.08 847.72,232.08 C863.8,232.08 877.96,224.4 886.12,210.48 C888.52,206.88 893.08,205.92 896.68,208.08 C900.28,210.24 901.48,215.04 899.32,218.64 C888.04,236.88 869.32,247.44 847.72,247.44 Z M802.12,174.96 L889.72,174.96 C886.84,150 870.04,132.96 846.52,132.96 C823,132.96 805.24,150.24 802.12,174.96 Z M970.12,120.72 C971.32,120.72 972.52,121.92 972.52,123.36 C972.52,124.8 971.32,125.76 970.12,125.76 C944.92,125.76 925.96,146.64 925.96,174 L925.96,245.04 C925.96,246.24 925,247.44 923.56,247.44 C922.36,247.44 921.16,246.24 921.16,245.04 L921.16,123.36 C921.16,121.92 922.36,120.72 923.56,120.72 C925,120.72 925.96,121.92 925.96,123.36 L925.96,150.24 C933.64,132.48 950.2,120.72 970.12,120.72 Z M1083.88,120.72 C1085.08,120.72 1086.28,121.92 1086.28,123.36 L1086.28,245.04 C1086.28,246.24 1085.08,247.44 1083.88,247.44 C1082.44,247.44 1081.48,246.24 1081.48,245.04 L1081.48,210.48 C1072.6,232.56 1052.68,247.44 1028.2,247.44 C995.08,247.44 970.12,220.32 970.12,184.08 C970.12,148.08 995.08,120.72 1028.2,120.72 C1052.68,120.72 1072.6,135.6 1081.48,157.92 L1081.48,123.36 C1081.48,121.92 1082.44,120.72 1083.88,120.72 Z M1028.2,242.4 C1058.44,242.4 1081.48,217.44 1081.48,184.08 C1081.48,150.96 1058.44,125.76 1028.2,125.76 C997.96,125.76 974.92,150.96 974.92,184.08 C974.92,217.44 997.96,242.4 1028.2,242.4 Z M1162.36,234.24 C1163.56,235.2 1163.56,236.88 1162.6,237.84 C1157.56,243.84 1150.12,247.44 1142.44,247.44 C1127.8,247.44 1115.8,235.2 1115.8,220.08 L1115.8,125.76 L1103.08,125.76 C1101.64,125.76 1100.68,124.8 1100.68,123.36 C1100.68,121.92 1101.64,120.72 1103.08,120.72 L1115.8,120.72 L1115.8,89.28 C1115.8,87.84 1117,86.64 1118.2,86.64 C1119.64,86.64 1120.6,87.84 1120.6,89.28 L1120.6,120.72 L1154.2,120.72 C1155.64,120.72 1156.6,121.92 1156.6,123.36 C1156.6,124.8 1155.64,125.76 1154.2,125.76 L1120.6,125.76 L1120.6,220.08 C1120.6,232.32 1130.44,242.4 1142.44,242.4 C1148.92,242.4 1154.92,239.52 1159,234.72 C1159.96,233.52 1161.4,233.52 1162.36,234.24 Z M1263.16,139.44 C1272.76,150.96 1278.28,166.8 1278.28,184.08 C1278.28,185.52 1277.08,186.72 1275.64,186.72 L1170.52,186.72 C1171.72,218.64 1194.04,242.4 1223.8,242.4 C1242.52,242.4 1258.6,233.04 1268.44,216.72 C1268.92,215.76 1270.6,215.28 1271.8,216 C1272.76,216.72 1273.24,218.16 1272.52,219.36 C1261.96,237.12 1244.2,247.44 1223.8,247.44 C1190.68,247.44 1165.72,220.32 1165.72,184.08 C1165.72,147.36 1189.48,120.72 1222.6,120.72 C1238.92,120.72 1253.08,127.2 1263.16,139.44 Z M1170.52,181.68 L1273.24,181.68 C1272.28,148.56 1251.64,125.76 1222.6,125.76 C1193.08,125.76 1171.72,149.04 1170.52,181.68 Z" id="homerate" fill="#313951"></path>
        </g>
    </g>
</svg>