<?xml version="1.0" encoding="iso-8859-1"?>
<!-- Generator: Adobe Illustrator 19.0.0, SVG Export Plug-In . SVG Version: 6.00 Build 0)  -->
<svg version="1.1" id="Capa_1" xmlns="http://www.w3.org/2000/svg" xmlns:xlink="http://www.w3.org/1999/xlink" x="0px" y="0px"
	 viewBox="0 0 365.2 365.2" style="enable-background:new 0 0 365.2 365.2;" xml:space="preserve">
<g>
	<g>
		<path d="M342,132.2v-26.8c0-32.8-22.8-44.4-44.4-44.4h-230C46,61,23.2,72.6,23.2,105.4v26.8C10,135.4,0,147.4,0,161.8v94
			c0,8.8,7.2,16,16,16h7.6v18c0,8,6.4,14.4,14.4,14.4h16c8,0,14.4-6.4,14.4-14.4v-18h228.4v18c0,8,6.4,14.4,14.4,14.4h16
			c8,0,14.4-6.4,14.4-14.4v-18h7.6c8.8,0,16-7.2,16-16v-94C365.2,147.4,355.2,135.4,342,132.2z M37.2,105.8
			C37.6,80.6,54,75.4,67.6,75.4H296c13.6,0,30.4,5.2,30.4,30.4v26.8c-13.2,3.2-23.2,15.2-23.2,29.2v8.4H60.4v-8.4
			c0-14-10-26-23.2-29.2V105.8z M303.2,184.6v27.6h-116v-27.6H303.2z M172.8,184.6v27.6H60.4v-27.6H172.8z M53.6,289.8h-16v-18h16
			V289.8z M326.4,289.8h-16v-18h16V289.8z M350,255.8c0,0.8-0.8,1.6-1.6,1.6h-21.6h-16H53.6h-16H16c-0.8,0-1.6-0.8-1.6-1.6v-94
			c0-8.8,7.2-16,16-16c8.8,0,16,7.2,16,16v57.6c0,4,3.2,7.2,7.2,7.2h257.2c4,0,7.2-3.2,7.2-7.2v-57.6c0-8.8,7.2-16,16-16
			s16,7.2,16,16V255.8z"/>
	</g>
</g>
<g>
	<g>
		<path d="M102,101.8c-12.4,0-22,9.6-22,22c0,12,10,22,22,22s22-9.6,22-22C124,111.8,114.4,101.8,102,101.8z M102,131.4
			c-4,0-7.6-3.2-7.6-7.6c0-4.4,3.2-7.6,7.6-7.6c4,0,7.6,3.2,7.6,7.6S106,131.4,102,131.4z"/>
	</g>
</g>
<g>
	<g>
		<path d="M258.4,101.8c-12.4,0-22,9.6-22,22c0.4,12,10,22,22,22s22-9.6,22-22C280.4,111.8,270.8,101.8,258.4,101.8z M258.4,131.4
			c-4,0-7.6-3.2-7.6-7.6s3.6-7.6,7.6-7.6s7.6,3.2,7.6,7.6S262.8,131.4,258.4,131.4z"/>
	</g>
</g>
<g>
</g>
<g>
</g>
<g>
</g>
<g>
</g>
<g>
</g>
<g>
</g>
<g>
</g>
<g>
</g>
<g>
</g>
<g>
</g>
<g>
</g>
<g>
</g>
<g>
</g>
<g>
</g>
<g>
</g>
</svg>
